<svg width="18" height="14" viewBox="0 0 18 14" fill="none" xmlns="http://www.w3.org/2000/svg">
<path fill-rule="evenodd" clip-rule="evenodd" d="M17.0328 1.84044C16.4253 2.11764 15.7726 2.3042 15.0877 2.38901C15.7868 1.9581 16.3239 1.27597 16.5767 0.463451C15.9222 0.86229 15.1973 1.15194 14.4257 1.30803C13.8081 0.631997 12.9276 0.210632 11.9535 0.210632C10.0832 0.210632 8.56631 1.76889 8.56631 3.6902C8.56631 3.96316 8.59598 4.2287 8.65402 4.48337C5.83853 4.33762 3.3424 2.95162 1.67204 0.847449C1.38053 1.36157 1.2135 1.9589 1.2135 2.59651C1.2135 3.80363 1.81147 4.86856 2.72005 5.49306C2.16541 5.47451 1.64276 5.31815 1.18615 5.05712V5.10084C1.18615 6.78763 2.35476 8.1935 3.90258 8.5135C3.61882 8.593 3.31957 8.6354 3.01181 8.6354C2.79357 8.6354 2.581 8.6142 2.37462 8.57313C2.80543 9.95594 4.05659 10.9619 5.53864 10.99C4.37931 11.9228 2.91868 12.4794 1.33113 12.4794C1.05768 12.4794 0.788618 12.4635 0.523682 12.4309C2.02249 13.4183 3.80327 13.9944 5.71599 13.9944C11.946 13.9944 15.3531 8.69158 15.3531 4.09368C15.3531 3.94262 15.3498 3.79289 15.3433 3.64316C16.0053 3.1529 16.5798 2.5394 17.0338 1.8411" fill="#6188FF"/>
</svg>
